<svg width="32" height="32" viewBox="0 0 32 32" fill="none" xmlns="http://www.w3.org/2000/svg">
<path d="M8.65625 6.48486H23.3835V14.303C23.3835 17.6168 20.6972 20.303 17.3835 20.303H14.6562C11.3425 20.303 8.65625 17.6168 8.65625 14.303V6.48486Z" fill="#FF8833"/>
<path d="M7.01953 5.3939C7.01953 4.99224 7.34514 4.66663 7.7468 4.66663H24.2923C24.6939 4.66663 25.0195 4.99224 25.0195 5.3939V5.75754C25.0195 6.1592 24.6939 6.48481 24.2923 6.48481H7.7468C7.34514 6.48481 7.01953 6.1592 7.01953 5.75754V5.3939Z" fill="#FF8833"/>
<path d="M11.2012 24.3031C11.2012 23.9014 11.5268 23.5758 11.9284 23.5758H20.1103C20.5119 23.5758 20.8375 23.9014 20.8375 24.3031V25.394H11.2012V24.3031Z" fill="#FF8833"/>
<path d="M9.74805 26.1212C9.74805 25.7195 10.0737 25.3939 10.4753 25.3939H21.748C22.1497 25.3939 22.4753 25.7195 22.4753 26.1212V27.9394C22.4753 28.341 22.1497 28.6666 21.748 28.6666H10.4753C10.0737 28.6666 9.74805 28.341 9.74805 27.9394V26.1212Z" fill="#7A00DA"/>
<path d="M14.6562 14.4849H17.5653V24.4849H14.6562V14.4849Z" fill="#FF8833"/>
<path fill-rule="evenodd" clip-rule="evenodd" d="M3.66123 9.35164C3.6997 8.31229 4.59683 7.66663 5.48138 7.66663H8.99512C9.44699 7.66663 9.8133 8.03294 9.8133 8.48481C9.8133 8.93668 9.44699 9.30299 8.99512 9.30299H5.48138C5.41132 9.30299 5.35747 9.32838 5.32754 9.35439C5.30234 9.37629 5.29717 9.39345 5.29647 9.41217C5.25721 10.4728 5.50679 11.7048 6.29792 12.6363C7.06348 13.5377 8.45313 14.2944 10.991 14.2049C11.4426 14.189 11.8216 14.5422 11.8375 14.9938C11.8534 15.4454 11.5003 15.8244 11.0487 15.8403C8.14113 15.9427 6.21627 15.068 5.05068 13.6956C3.91066 12.3533 3.61246 10.6691 3.66123 9.35164Z" fill="#FF8833"/>
<path fill-rule="evenodd" clip-rule="evenodd" d="M28.3778 9.35164C28.3394 8.31229 27.4422 7.66663 26.5577 7.66663H23.0439C22.5921 7.66663 22.2258 8.03294 22.2258 8.48481C22.2258 8.93668 22.5921 9.30299 23.0439 9.30299H26.5577C26.6277 9.30299 26.6816 9.32838 26.7115 9.35439C26.7367 9.37629 26.7419 9.39345 26.7426 9.41217C26.7818 10.4728 26.5323 11.7048 25.7411 12.6363C24.9756 13.5377 23.5859 14.2944 21.048 14.2049C20.5964 14.189 20.2174 14.5422 20.2015 14.9938C20.1856 15.4454 20.5388 15.8244 20.9904 15.8403C23.8979 15.9427 25.8228 15.068 26.9884 13.6956C28.1284 12.3533 28.4266 10.6691 28.3778 9.35164Z" fill="#FF8833"/>
</svg>
