<svg width="160" height="160" viewBox="0 0 160 160" fill="none" xmlns="http://www.w3.org/2000/svg">
<rect x="19" y="36" width="124" height="26" rx="6" fill="#8D33FF"/>
<mask id="mask0_1586_59075" style="mask-type:alpha" maskUnits="userSpaceOnUse" x="19" y="36" width="124" height="26">
<rect x="19" y="36" width="124" height="26" rx="6" fill="#8D33FF"/>
</mask>
<g mask="url(#mask0_1586_59075)">
<path d="M65 42.7728C65 41.2414 66.2414 40 67.7728 40H143V58H67.7728C66.2414 58 65 56.7586 65 55.2272V42.7728Z" fill="#E6E9F5"/>
</g>
<rect x="6" y="62" width="124" height="28" rx="7" fill="#FF8833"/>
<mask id="mask1_1586_59075" style="mask-type:alpha" maskUnits="userSpaceOnUse" x="6" y="62" width="124" height="28">
<rect x="6" y="62" width="124" height="28" rx="7" fill="#F97905"/>
</mask>
<g mask="url(#mask1_1586_59075)">
<rect x="-20" y="66" width="99" height="20" rx="2.77285" fill="#FFEDE1"/>
<path d="M33 80.3764V72.1975C33 71.5361 33.5361 71 34.1975 71H42.8025C43.4639 71 44 71.5361 44 72.1975V80.0255C44 81.1039 42.6862 81.6328 41.939 80.8552L39.7884 78.6171C39.3466 78.1573 38.6221 78.1243 38.1404 78.5421L34.9821 81.2811C34.2067 81.9535 33 81.4027 33 80.3764Z" fill="#8D33FF"/>
</g>
<path d="M29 94.0001C29 91.791 30.7909 90.0001 33 90.0001H145C149.418 90.0001 153 93.5818 153 98.0001V101C153 105.418 149.418 109 145 109H33C30.7909 109 29 107.209 29 105V94.0001Z" fill="#8D33FF"/>
<mask id="mask2_1586_59075" style="mask-type:alpha" maskUnits="userSpaceOnUse" x="29" y="90" width="124" height="20">
<path d="M29 94.0001C29 91.791 30.7909 90.0001 33 90.0001H149C151.209 90.0001 153 91.791 153 94.0001V105C153 107.209 151.209 109 149 109H33C30.7909 109 29 107.209 29 105V94.0001Z" fill="#7A55FC"/>
</mask>
<g mask="url(#mask2_1586_59075)">
<rect x="-12" y="93.0001" width="114" height="13" rx="6.5" fill="#E6E9F5"/>
</g>
<rect x="19" y="109" width="124" height="35" rx="7" fill="#FF8833"/>
<path fill-rule="evenodd" clip-rule="evenodd" d="M140.574 113C141.644 113 142.668 113.61 142.872 114.66C142.956 115.094 143 115.542 143 116V137C143 137.458 142.956 137.906 142.872 138.339C142.668 139.39 141.644 140 140.574 140H64.7729C63.2415 140 62 138.758 62 137.227V115.773C62 114.241 63.2414 113 64.7728 113H140.574Z" fill="#FFEDE1"/>
<path d="M103 131.588V120.197C103 119.536 103.536 119 104.197 119H115.803C116.464 119 117 119.536 117 120.197V131.423C117 132.442 115.809 132.996 115.03 132.339L111.101 129.025C110.673 128.663 110.051 128.648 109.605 128.986L104.922 132.541C104.133 133.14 103 132.578 103 131.588Z" fill="#8D33FF"/>
<path d="M77 49.683V18.5925C77 16.6084 78.6084 15 80.5925 15H106.408C108.392 15 110 16.6084 110 18.5925V49.1796C110 52.2504 106.397 53.9056 104.067 51.905L96.5894 45.4836C95.2963 44.3731 93.4007 44.3242 92.052 45.3666L82.7894 52.5255C80.4281 54.3505 77 52.6674 77 49.683Z" fill="#FF8833"/>
<path fill-rule="evenodd" clip-rule="evenodd" d="M100.668 22.752C104.231 24.8249 104.581 29.6907 100.865 33.2085C100.308 33.7352 98.3934 35.4528 95.0755 38.4018C94.1781 39.1994 92.8214 39.1994 91.9241 38.4018C88.6066 35.4532 86.6913 33.7353 86.1347 33.2085C82.3992 29.6727 82.7761 24.7743 86.3789 22.725C88.6864 21.4124 91.4476 21.9004 93.4998 24.0419C95.5675 21.8845 98.3547 21.4065 100.668 22.752Z" fill="white"/>
</svg>
