<svg width="32" height="32" viewBox="0 0 32 32" fill="none" xmlns="http://www.w3.org/2000/svg">
<path d="M27.3347 17.3945C27.3347 23.5556 22.3401 28.5501 16.179 28.5501C10.018 28.5501 5.02344 23.5556 5.02344 17.3945C5.02344 11.2334 10.018 6.23889 16.179 6.23889C22.3401 6.23889 27.3347 11.2334 27.3347 17.3945Z" fill="#8D33FF"/>
<path d="M24.5459 17.3944C24.5459 22.0152 20.8 25.7611 16.1792 25.7611C11.5584 25.7611 7.8125 22.0152 7.8125 17.3944C7.8125 12.7736 11.5584 9.02771 16.1792 9.02771C20.8 9.02771 24.5459 12.7736 24.5459 17.3944Z" fill="#FF8833"/>
<path d="M17.5741 18.0917C17.5741 18.8619 16.9497 19.4862 16.1796 19.4862C15.4095 19.4862 14.7852 18.8619 14.7852 18.0917C14.7852 17.3216 15.4095 16.6973 16.1796 16.6973C16.9497 16.6973 17.5741 17.3216 17.5741 18.0917Z" fill="#8D33FF"/>
<path d="M13.3906 4.13913C13.3906 3.75851 13.6992 3.44995 14.0798 3.44995H17.582C17.9627 3.44995 18.2712 3.75851 18.2712 4.13913V4.85245C18.2712 5.23307 17.9627 5.54163 17.582 5.54163H14.0798C13.6992 5.54163 13.3906 5.23307 13.3906 4.85245V4.13913Z" fill="#8D33FF"/>
<path d="M11.8408 13.6984C12.1099 13.4292 12.5463 13.4292 12.8154 13.6984L16.473 17.356C16.7422 17.6251 16.7422 18.0615 16.473 18.3306L16.4183 18.3854C16.1492 18.6545 15.7128 18.6545 15.4437 18.3854L11.7861 14.7278C11.5169 14.4586 11.5169 14.0223 11.7861 13.7531L11.8408 13.6984Z" fill="#8D33FF"/>
<path d="M20.1515 15.6546C20.3418 15.9842 20.2289 16.4057 19.8992 16.5961L17.0132 18.2623C16.6836 18.4526 16.2621 18.3397 16.0718 18.01L16.0331 17.943C15.8428 17.6134 15.9557 17.1919 16.2854 17.0016L19.1714 15.3353C19.501 15.145 19.9225 15.2579 20.1128 15.5876L20.1515 15.6546Z" fill="#8D33FF"/>
<path d="M14.0879 4.84436H17.574V6.93604H14.0879V4.84436Z" fill="#8D33FF"/>
<path d="M20.8951 5.40305C21.1181 5.09456 21.5489 5.02522 21.8574 5.24817L24.6959 7.29962C25.0044 7.52257 25.0737 7.95339 24.8508 8.26188L24.8414 8.27492C24.6184 8.58341 24.1876 8.65275 23.8791 8.4298L21.0406 6.37836C20.7321 6.15541 20.6628 5.72459 20.8857 5.4161L20.8951 5.40305Z" fill="#8D33FF"/>
<path d="M21.5879 6.23889L23.8032 7.8399L22.5779 9.53518L20.3627 7.93417L21.5879 6.23889Z" fill="#8D33FF"/>
</svg>
