<svg width="32" height="32" viewBox="0 0 32 32" fill="none" xmlns="http://www.w3.org/2000/svg">
<circle cx="21.6031" cy="10.4" r="8.4" fill="#8D33FF"/>
<path d="M20.72 6.15639C21.0846 5.43078 22.1204 5.43078 22.485 6.15639C23.215 7.609 24.3937 8.78769 25.8463 9.51769C26.572 9.88233 26.572 10.9181 25.8463 11.2828C24.3937 12.0128 23.215 13.1915 22.485 14.6441C22.1204 15.3697 21.0846 15.3697 20.72 14.6441C19.99 13.1915 18.8113 12.0128 17.3587 11.2828C16.6331 10.9181 16.6331 9.88233 17.3587 9.51769C18.8113 8.78769 19.99 7.609 20.72 6.15639Z" fill="#FF8833"/>
<rect x="2" y="13.1998" width="16.8" height="16.8" rx="5" fill="#FF8833"/>
<rect x="4.80078" y="25.3334" width="11.2" height="0.933333" rx="0.466667" fill="#8D33FF"/>
<rect x="4.80078" y="19.7333" width="11.2" height="0.933333" rx="0.466667" fill="#8D33FF"/>
<rect x="4.80078" y="22.5333" width="8.4" height="0.933333" rx="0.466667" fill="#8D33FF"/>
<rect x="4.80078" y="16.9333" width="8.4" height="0.933333" rx="0.466667" fill="#8D33FF"/>
</svg>
